<?xml version="1.0" encoding="utf-8"?>
<!-- Generator: Adobe Illustrator 19.1.0, SVG Export Plug-In . SVG Version: 6.00 Build 0)  -->
<svg version="1.1" id="Layer_1" xmlns="http://www.w3.org/2000/svg" xmlns:xlink="http://www.w3.org/1999/xlink" x="0px" y="0px"
	 viewBox="0 0 200 200" style="enable-background:new 0 0 200 200;" xml:space="preserve">
<style type="text/css">
	.st0{fill:none;stroke:#808080;stroke-width:2;stroke-miterlimit:10;}
	.st1{fill:none;stroke:#000000;stroke-width:2;stroke-miterlimit:10;}
	.st2{fill:none;stroke:#000000;stroke-width:4;stroke-miterlimit:10;}
	.st3{fill:none;stroke:#000000;stroke-miterlimit:10;}
	.st4{fill:purple;}
	.st5{fill:#FFFFFF;}
	.st6{fill:none;stroke:#000000;stroke-width:4;stroke-linecap:square;stroke-linejoin:round;stroke-miterlimit:10;}
	.st7{fill:none;stroke:#000000;stroke-width:4;stroke-linecap:round;stroke-linejoin:round;stroke-miterlimit:10;}
	.st8{opacity:0.6;fill:url(#SVGID_1_);}
	.st9{opacity:0.6;fill:url(#SVGID_2_);}
	.st10{opacity:0.6;fill:url(#SVGID_3_);}
	.st11{opacity:0.6;fill:url(#SVGID_4_);}
	.st12{opacity:0.6;fill:url(#SVGID_5_);}
	.st13{opacity:0.6;fill:url(#SVGID_6_);}
	.st14{opacity:0.6;fill:url(#SVGID_7_);}
	.st15{opacity:0.6;fill:url(#SVGID_8_);}
	.st16{opacity:0.6;fill:url(#SVGID_9_);}
	.st17{fill:none;stroke:#FFFFFF;stroke-width:4;stroke-linecap:round;stroke-linejoin:round;stroke-miterlimit:10;}
	.st18{fill:none;stroke:purple;stroke-width:6;stroke-linecap:round;stroke-linejoin:round;stroke-miterlimit:10;}
</style>
<g>
	<path class="st18" d="M67.8,156.1c-18.4-10.1-30.7-28.4-30.7-49.5h125.7c0,20.9-12.1,39.4-30.3,49.5v6.5c0,2.5-2,4.6-4.6,4.6H72.4
		c-2.5,0-4.5-2-4.6-4.5L67.8,156.1z"/>
	<path class="st18" d="M58.3,73.2c0,0,31.1,4.7,41.7,33.4c0,0,0.1-37.5,34.6-59.4"/>
	<path class="st18" d="M102.9,84.1c0,0-18.8-31.1,11.2-45.8c0,0,14.7-6.2,35-5.3c0,0-4.1,2.6-2.1,10c2.1,7.3,11.5,42.9-36.4,48.1"/>
	<path class="st18" d="M85.7,86.2c0,0,4.7-27.1-18.4-27.1c0,0-14.4-1.7-28.4,8c-4.8,3.3,21.4,35.7,38.7,23.9"/>
</g>
</svg>
