<?xml version="1.0" standalone="no"?>
<!DOCTYPE svg PUBLIC "-//W3C//DTD SVG 20010904//EN"
 "http://www.w3.org/TR/2001/REC-SVG-20010904/DTD/svg10.dtd">
<svg version="1.0" xmlns="http://www.w3.org/2000/svg"
 width="300.000000pt" height="300.000000pt" viewBox="0 0 300.000000 300.000000"
 preserveAspectRatio="xMidYMid meet">
<metadata>
Created by potrace 1.11, written by Peter Selinger 2001-2013
</metadata>
<g transform="translate(0.000000,300.000000) scale(0.100000,-0.100000)"
fill="#000000" stroke="none">
<path d="M1147 2284 c-1 -1 -41 -4 -89 -7 -140 -9 -306 -64 -414 -137 -25 -16
-47 -30 -50 -30 -2 0 -13 -8 -23 -17 -156 -145 -208 -212 -271 -347 -66 -142
-84 -221 -84 -381 -1 -196 13 -262 89 -417 52 -107 82 -133 149 -133 63 1 109
30 131 80 18 45 11 94 -25 165 -65 130 -88 317 -54 450 23 88 88 210 149 277
51 56 179 153 202 153 6 0 23 7 39 15 61 30 156 45 269 41 95 -2 121 -7 190
-34 44 -18 105 -48 135 -68 61 -40 168 -148 190 -191 52 -101 80 -140 114
-156 47 -22 70 -21 122 3 85 42 99 112 45 220 -74 145 -183 268 -318 357 -100
65 -168 96 -270 122 -68 17 -219 41 -226 35z"/>
<path d="M2478 2159 c-83 -43 -91 -100 -31 -240 50 -116 55 -137 59 -266 2
-78 -1 -117 -17 -173 -66 -239 -235 -406 -471 -464 -233 -58 -468 14 -635 194
-17 19 -56 75 -85 124 -29 48 -63 97 -76 107 -80 63 -222 -5 -222 -106 0 -37
45 -135 98 -212 119 -174 303 -309 494 -363 120 -35 153 -40 258 -41 135 -1
224 14 335 56 280 105 481 323 571 621 24 79 27 106 28 239 1 158 -15 244 -64
361 -71 168 -143 216 -242 163z"/>
</g>
</svg>
