<?xml version="1.0" encoding="utf-8"?>
<!-- Generator: Adobe Illustrator 19.1.0, SVG Export Plug-In . SVG Version: 6.00 Build 0)  -->
<svg version="1.1" id="Layer_1" xmlns="http://www.w3.org/2000/svg" xmlns:xlink="http://www.w3.org/1999/xlink" x="0px" y="0px"
	 viewBox="0 0 200 200" style="enable-background:new 0 0 200 200;" xml:space="preserve">
<style type="text/css">
	.st0{fill:none;stroke:#808080;stroke-width:2;stroke-miterlimit:10;}
	.st1{fill:none;stroke:#000000;stroke-width:2;stroke-miterlimit:10;}
	.st2{fill:none;stroke:#000000;stroke-width:4;stroke-miterlimit:10;}
	.st3{fill:none;stroke:#000000;stroke-miterlimit:10;}
	.st4{fill:#3C003C;}
	.st5{fill:#FFFFFF;}
	.st6{fill:none;stroke:#000000;stroke-width:4;stroke-linecap:square;stroke-linejoin:round;stroke-miterlimit:10;}
	.st7{fill:none;stroke:#000000;stroke-width:4;stroke-linecap:round;stroke-linejoin:round;stroke-miterlimit:10;}
	.st8{opacity:0.6;fill:url(#SVGID_1_);}
	.st9{opacity:0.6;fill:url(#SVGID_2_);}
	.st10{opacity:0.6;fill:url(#SVGID_3_);}
	.st11{opacity:0.6;fill:url(#SVGID_4_);}
	.st12{opacity:0.6;fill:url(#SVGID_5_);}
	.st13{opacity:0.6;fill:url(#SVGID_6_);}
	.st14{opacity:0.6;fill:url(#SVGID_7_);}
	.st15{opacity:0.6;fill:url(#SVGID_8_);}
	.st16{opacity:0.6;fill:url(#SVGID_9_);}
	.st17{fill:none;stroke:#FFFFFF;stroke-width:4;stroke-linecap:round;stroke-linejoin:round;stroke-miterlimit:10;}
	.st18{fill:none;stroke:#FFFFFF;stroke-width:6;stroke-linecap:round;stroke-linejoin:round;stroke-miterlimit:10;}
</style>
<g>
	<circle class="st18" cx="100" cy="100" r="56.7"/>
	<polygon class="st18" points="100.1,76.9 122.5,91.9 115.3,122.3 84.1,122.3 76.9,92.6 	"/>
	<polyline class="st18" points="77.9,47.7 100.1,55.3 121.5,48.4 	"/>
	<polyline class="st18" points="44.3,102.7 58.5,84.1 58.7,61.6 	"/>
	<polyline class="st18" points="156,102.7 141.8,84.1 141.5,61.6 	"/>
	<polyline class="st18" points="114.3,155 127.4,135.6 148.7,128.1 	"/>
	<polyline class="st18" points="85.1,155 72,135.6 50.7,128.1 	"/>
	<line class="st18" x1="100.1" y1="76.9" x2="100.1" y2="55.3"/>
	<line class="st18" x1="115.3" y1="122.3" x2="127.4" y2="135.6"/>
	<line class="st18" x1="84.1" y1="122.3" x2="72" y2="135.6"/>
	<line class="st18" x1="76.9" y1="92.6" x2="58.5" y2="84.1"/>
	<line class="st18" x1="122.5" y1="91.9" x2="141.8" y2="84.1"/>
</g>
</svg>
