<?xml version="1.0" encoding="utf-8"?>
<!-- Generator: Adobe Illustrator 19.1.0, SVG Export Plug-In . SVG Version: 6.00 Build 0)  -->
<svg version="1.1" id="Layer_1" xmlns="http://www.w3.org/2000/svg" xmlns:xlink="http://www.w3.org/1999/xlink" x="0px" y="0px"
	 viewBox="0 0 200 200" style="enable-background:new 0 0 200 200;" xml:space="preserve">
<style type="text/css">
	.st0{fill:none;stroke:#808080;stroke-width:2;stroke-miterlimit:10;}
	.st1{fill:none;stroke:#000000;stroke-width:2;stroke-miterlimit:10;}
	.st2{fill:none;stroke:#000000;stroke-width:4;stroke-miterlimit:10;}
	.st3{fill:none;stroke:#000000;stroke-miterlimit:10;}
	.st4{fill:#3C003C;}
	.st5{fill:#FFFFFF;}
	.st6{fill:none;stroke:#000000;stroke-width:4;stroke-linecap:square;stroke-linejoin:round;stroke-miterlimit:10;}
	.st7{fill:none;stroke:#000000;stroke-width:4;stroke-linecap:round;stroke-linejoin:round;stroke-miterlimit:10;}
	.st8{opacity:0.6;fill:url(#SVGID_1_);}
	.st9{opacity:0.6;fill:url(#SVGID_2_);}
	.st10{opacity:0.6;fill:url(#SVGID_3_);}
	.st11{opacity:0.6;fill:url(#SVGID_4_);}
	.st12{opacity:0.6;fill:url(#SVGID_5_);}
	.st13{opacity:0.6;fill:url(#SVGID_6_);}
	.st14{opacity:0.6;fill:url(#SVGID_7_);}
	.st15{opacity:0.6;fill:url(#SVGID_8_);}
	.st16{opacity:0.6;fill:url(#SVGID_9_);}
	.st17{fill:none;stroke:#FFFFFF;stroke-width:4;stroke-linecap:round;stroke-linejoin:round;stroke-miterlimit:10;}
	.st18{fill:none;stroke:#FFFFFF;stroke-width:6;stroke-linecap:round;stroke-linejoin:round;stroke-miterlimit:10;}
</style>
<g>
	<path class="st18" d="M147,36.9H43.1c-1.1,0-2.1,0.9-2.1,2.1v33.9c0,1.1,0.9,2.1,2.1,2.1H147c1.1,0,2.1-0.9,2.1-2.1V39
		C149.1,37.9,148.2,36.9,147,36.9z"/>
	<path class="st18" d="M107.2,162.6v-49c0-0.3-0.2-0.5-0.5-0.5H85.4c-0.3,0-0.5,0.2-0.5,0.5v49c0,0.3,0.2,0.5,0.5,0.5h21.3
		C106.9,163.1,107.2,162.9,107.2,162.6z"/>
	<polyline class="st18" points="149.1,56 158.9,56 158.9,85.9 96,99.6 96,113.1 	"/>
</g>
</svg>
