<?xml version="1.0" encoding="utf-8"?>
<!-- Generator: Adobe Illustrator 19.1.0, SVG Export Plug-In . SVG Version: 6.00 Build 0)  -->
<svg version="1.1" id="Layer_1" xmlns="http://www.w3.org/2000/svg" xmlns:xlink="http://www.w3.org/1999/xlink" x="0px" y="0px"
	 viewBox="0 0 200 200" style="enable-background:new 0 0 200 200;" xml:space="preserve">
<style type="text/css">
	.st0{fill:none;stroke:#808080;stroke-width:2;stroke-miterlimit:10;}
	.st1{fill:none;stroke:#000000;stroke-width:2;stroke-miterlimit:10;}
	.st2{fill:none;stroke:#000000;stroke-width:4;stroke-miterlimit:10;}
	.st3{fill:none;stroke:#000000;stroke-miterlimit:10;}
	.st4{fill:#3C003C;}
	.st5{fill:#FFFFFF;}
	.st6{fill:none;stroke:#000000;stroke-width:4;stroke-linecap:square;stroke-linejoin:round;stroke-miterlimit:10;}
	.st7{fill:none;stroke:#000000;stroke-width:4;stroke-linecap:round;stroke-linejoin:round;stroke-miterlimit:10;}
	.st8{opacity:0.6;fill:url(#SVGID_1_);}
	.st9{opacity:0.6;fill:url(#SVGID_2_);}
	.st10{opacity:0.6;fill:url(#SVGID_3_);}
	.st11{opacity:0.6;fill:url(#SVGID_4_);}
	.st12{opacity:0.6;fill:url(#SVGID_5_);}
	.st13{opacity:0.6;fill:url(#SVGID_6_);}
	.st14{opacity:0.6;fill:url(#SVGID_7_);}
	.st15{opacity:0.6;fill:url(#SVGID_8_);}
	.st16{opacity:0.6;fill:url(#SVGID_9_);}
	.st17{fill:none;stroke:#FFFFFF;stroke-width:4;stroke-linecap:round;stroke-linejoin:round;stroke-miterlimit:10;}
	.st18{fill:none;stroke:#FFFFFF;stroke-width:6;stroke-linecap:round;stroke-linejoin:round;stroke-miterlimit:10;}
</style>
<g>
	<path class="st18" d="M90,48.3H49c-1,0-1.9,0.8-1.9,1.9v41c0,1,0.8,1.9,1.9,1.9h41c1,0,1.9-0.8,1.9-1.9v-41
		C91.8,49.1,91,48.3,90,48.3z"/>
	<path class="st18" d="M151,48.3h-41c-1,0-1.9,0.8-1.9,1.9v41c0,1,0.8,1.9,1.9,1.9h41c1,0,1.9-0.8,1.9-1.9v-41
		C152.9,49.1,152,48.3,151,48.3z"/>
	<path class="st18" d="M90,107H49c-1,0-1.9,0.8-1.9,1.9v41c0,1,0.8,1.9,1.9,1.9h41c1,0,1.9-0.8,1.9-1.9v-41
		C91.8,107.9,91,107,90,107z"/>
	<path class="st18" d="M151,107h-41c-1,0-1.9,0.8-1.9,1.9v41c0,1,0.8,1.9,1.9,1.9h41c1,0,1.9-0.8,1.9-1.9v-41
		C152.9,107.9,152,107,151,107z"/>
</g>
</svg>
