<?xml version="1.0" encoding="utf-8"?>
<!-- Generator: Adobe Illustrator 19.1.0, SVG Export Plug-In . SVG Version: 6.00 Build 0)  -->
<svg version="1.1" id="Layer_1" xmlns="http://www.w3.org/2000/svg" xmlns:xlink="http://www.w3.org/1999/xlink" x="0px" y="0px"
	 viewBox="0 0 291.7 115.4" style="enable-background:new 0 0 291.7 115.4;" xml:space="preserve">
<style type="text/css">
	.st0{fill:#6E2A7C;}
	.st1{fill:#FFFFFF;}
</style>
<g>
	<path class="st0" d="M10.7,3.6h269c4.5,0,8.2,3.7,8.2,8.2V104c0,4.5-3.7,8.2-8.2,8.2h-269c-4.5,0-8.2-3.7-8.2-8.2V11.9
		C2.5,7.3,6.2,3.6,10.7,3.6z"/>
	<g>
		<g>
			<path class="st1" d="M133.1,48.4h4.7v23.1c0,4.2-1.7,6.6-6.1,6.6c-0.9,0-1.5-0.1-2.1-0.2v-3.7c0.6,0.1,1.2,0.2,1.6,0.2
				c1.7,0,1.9-1,1.9-3.1V48.4z"/>
			<path class="st1" d="M140.8,59c0-6.5,3.9-11.2,10.7-11.2c6.8,0,10.7,4.7,10.7,11.2c0,6.5-3.9,11.2-10.7,11.2
				C144.7,70.2,140.8,65.5,140.8,59z M157.6,59c0-3.7-1.9-7.5-6-7.5s-6,3.8-6,7.5c0,3.7,1.8,7.5,6,7.5S157.6,62.7,157.6,59z"/>
			<path class="st1" d="M165.3,40.3h4.7v10.9h0.1c1.3-2.1,3.9-3.3,6.3-3.3c6.7,0,9.9,5.1,9.9,11.3c0,5.7-2.9,11.1-9.2,11.1
				c-2.9,0-6-0.7-7.4-3.5h-0.1v2.9h-4.4V40.3z M175.8,51.5c-3.9,0-6,3-6,7.5c0,4.3,2.2,7.5,6,7.5c4.3,0,5.9-3.8,5.9-7.5
				C181.6,55.2,179.6,51.5,175.8,51.5z"/>
			<path class="st1" d="M189.4,40.3h4.7v10.9h0.1c1.3-2.1,3.9-3.3,6.3-3.3c6.7,0,9.9,5.1,9.9,11.3c0,5.7-2.9,11.1-9.2,11.1
				c-2.9,0-6-0.7-7.4-3.5h-0.1v2.9h-4.4V40.3z M199.9,51.5c-3.9,0-6,3-6,7.5c0,4.3,2.2,7.5,6,7.5c4.3,0,5.9-3.8,5.9-7.5
				C205.7,55.2,203.7,51.5,199.9,51.5z"/>
			<rect x="213.5" y="48.4" class="st1" width="4.7" height="21.3"/>
			<path class="st1" d="M225.9,60.2c0,3.3,1.8,6.3,5.7,6.3c2.7,0,4.4-1.2,5.2-3.5h4.4c-1,4.6-5,7.2-9.6,7.2
				c-6.7,0-10.4-4.6-10.4-11.2c0-6,3.9-11.2,10.3-11.2c6.7,0,10.8,6,10,12.4H225.9z M236.8,57.2c-0.2-3-2.2-5.6-5.3-5.6
				c-3.2,0-5.5,2.5-5.6,5.6H236.8z"/>
			<path class="st1" d="M244,48.4h4.4v4.1h0.1c0.5-2.3,3.3-4.7,6.2-4.7c1.1,0,1.4,0.1,1.8,0.1v4.5c-0.7-0.1-1.4-0.2-2-0.2
				c-3.2,0-5.8,2.6-5.8,7.3v10.1H244V48.4z"/>
			<circle class="st1" cx="135.4" cy="40.8" r="3"/>
			<circle class="st1" cx="215.8" cy="40.8" r="3"/>
		</g>
		<g>
			<g>
				<path class="st1" d="M105.1,40.2c-2.6-4.5-9.4-0.7-7,3.9l0.6,1.2l0,0c4.7,9.2,1.1,20.5-8.2,25.3c-9.2,4.7-20.5,1.1-25.3-8.2l0,0
					L64.6,61c-2.3-4.6-9.3-1.4-7.3,3.3c0.5,1.2,1.1,2.3,1.8,3.5c6.9,11.3,21.4,16,33.6,10.7c14.4-6.2,20.3-23.2,13.3-36.9
					C105.6,41.1,105.4,40.6,105.1,40.2z"/>
			</g>
			<g>
				<path class="st1" d="M85.4,51.4c2.1,4.7-4.9,8-7.3,3.4l-0.6-1.2l0,0c-4.7-9.2-16-12.9-25.3-8.2c-9.2,4.7-12.9,16-8.2,25.3l0,0
					l0.7,1.3c2.3,4.6-4.3,8.4-7,4c-0.7-1.1-1.2-2.3-1.8-3.5C30.9,60.2,35.6,45.8,47.1,39c13.5-8,30.7-2.9,37.7,10.9
					C85,50.4,85.2,50.9,85.4,51.4z"/>
			</g>
		</g>
	</g>
</g>
</svg>
