<?xml version="1.0" encoding="utf-8"?>
<!-- Generator: Adobe Illustrator 19.1.0, SVG Export Plug-In . SVG Version: 6.00 Build 0)  -->
<svg version="1.1" id="Layer_1" xmlns="http://www.w3.org/2000/svg" xmlns:xlink="http://www.w3.org/1999/xlink" x="0px" y="0px"
	 viewBox="0 0 208.4 150" style="enable-background:new 0 0 208.4 150;" xml:space="preserve">
<style type="text/css">
	.st0{fill:#6E2A7C;}
	.st1{fill:#FFFFFF;}
</style>
<g>
	<path class="st0" d="M192.1,2H15.2C8.7,2,3.5,7.3,3.5,13.8v121.3c0,6.5,5.3,11.8,11.8,11.8h176.9c6.5,0,11.8-5.3,11.8-11.8V13.8
		C203.9,7.3,198.6,2,192.1,2z"/>
	<g>
		<g>
			<path class="st1" d="M48.5,101.8h4.3V123c0,3.9-1.6,6.1-5.6,6.1c-0.8,0-1.4-0.1-1.9-0.2v-3.4c0.6,0.1,1.1,0.2,1.5,0.2
				c1.6,0,1.7-0.9,1.7-2.9V101.8z"/>
			<path class="st1" d="M55.7,111.5c0-6,3.6-10.3,9.9-10.3s9.9,4.3,9.9,10.3c0,6-3.6,10.3-9.9,10.3S55.7,117.5,55.7,111.5z
				 M71.1,111.5c0-3.4-1.7-6.9-5.6-6.9c-3.9,0-5.6,3.5-5.6,6.9c0,3.4,1.7,6.9,5.6,6.9C69.4,118.4,71.1,114.9,71.1,111.5z"/>
			<path class="st1" d="M78.2,94.3h4.3v10h0.1c1.2-1.9,3.6-3.1,5.8-3.1c6.2,0,9.2,4.7,9.2,10.4c0,5.3-2.6,10.2-8.4,10.2
				c-2.6,0-5.5-0.6-6.8-3.2h-0.1v2.7h-4.1V94.3z M87.8,104.6c-3.6,0-5.5,2.8-5.5,6.9c0,3.9,2,6.9,5.5,6.9c3.9,0,5.4-3.5,5.4-6.9
				C93.2,108,91.3,104.6,87.8,104.6z"/>
			<path class="st1" d="M100.3,94.3h4.3v10h0.1c1.2-1.9,3.6-3.1,5.8-3.1c6.2,0,9.2,4.7,9.2,10.4c0,5.3-2.6,10.2-8.4,10.2
				c-2.6,0-5.5-0.6-6.8-3.2h-0.1v2.7h-4.1V94.3z M110,104.6c-3.6,0-5.5,2.8-5.5,6.9c0,3.9,2,6.9,5.5,6.9c3.9,0,5.4-3.5,5.4-6.9
				C115.4,108,113.5,104.6,110,104.6z"/>
			<rect x="122.5" y="101.8" class="st1" width="4.3" height="19.5"/>
			<path class="st1" d="M133.9,112.6c0,3.1,1.7,5.8,5.3,5.8c2.5,0,4-1.1,4.8-3.3h4.1c-0.9,4.3-4.6,6.7-8.8,6.7
				c-6.1,0-9.6-4.3-9.6-10.3c0-5.6,3.6-10.3,9.5-10.3c6.2,0,9.9,5.6,9.2,11.4H133.9z M143.9,109.8c-0.2-2.7-2-5.2-4.9-5.2
				c-3,0-5,2.3-5.1,5.2H143.9z"/>
			<path class="st1" d="M150.6,101.8h4v3.8h0.1c0.5-2.1,3.1-4.3,5.7-4.3c1,0,1.2,0.1,1.6,0.1v4.2c-0.6-0.1-1.2-0.2-1.9-0.2
				c-2.9,0-5.3,2.4-5.3,6.7v9.3h-4.3V101.8z"/>
			<circle class="st1" cx="50.7" cy="94.7" r="2.7"/>
			<circle class="st1" cx="124.6" cy="94.7" r="2.7"/>
		</g>
		<g>
			<g>
				<path class="st1" d="M131.3,38.7c-2.4-4.1-8.6-0.7-6.5,3.6l0.6,1.1l0,0c4.3,8.5,1,18.9-7.5,23.2c-8.5,4.3-18.9,1-23.2-7.5l0,0
					L94,57.9c-2.1-4.2-8.6-1.3-6.7,3.1c0.5,1.1,1,2.1,1.6,3.2c6.3,10.4,19.7,14.7,30.9,9.8C133,68.2,138.5,52.7,132,40
					C131.8,39.6,131.6,39.1,131.3,38.7z"/>
			</g>
			<g>
				<path class="st1" d="M113.2,49c1.9,4.4-4.5,7.4-6.7,3.1l-0.6-1.1l0,0c-4.3-8.5-14.7-11.9-23.2-7.5c-8.5,4.3-11.9,14.7-7.5,23.2
					l0,0l0.6,1.2c2.1,4.2-4,7.7-6.4,3.7c-0.6-1-1.1-2.1-1.6-3.2C63,57.2,67.4,43.9,77.9,37.7c12.4-7.3,28.2-2.6,34.6,10
					C112.8,48.1,113,48.6,113.2,49z"/>
			</g>
		</g>
	</g>
</g>
</svg>
