<?xml version="1.0" encoding="UTF-8" standalone="no"?>
<svg
   xmlns:dc="http://purl.org/dc/elements/1.1/"
   xmlns:cc="http://creativecommons.org/ns#"
   xmlns:rdf="http://www.w3.org/1999/02/22-rdf-syntax-ns#"
   xmlns:svg="http://www.w3.org/2000/svg"
   xmlns="http://www.w3.org/2000/svg"
   height="52.5"
   width="80"
   xml:space="preserve"
   viewBox="0 0 79.999999 52.5"
   y="0px"
   x="0px"
   id="Layer_1"
   version="1.1"><metadata
     id="metadata41"><rdf:RDF><cc:Work
         rdf:about=""><dc:format>image/svg+xml</dc:format><dc:type
           rdf:resource="http://purl.org/dc/dcmitype/StillImage" /><dc:title></dc:title></cc:Work></rdf:RDF></metadata><defs
     id="defs39" /><style
     id="style3"
     type="text/css">
	.st0{fill:#6E2A7C;}
	.st1{fill:#FFFFFF;}
</style><g
     id="g5"><g
       id="g27"><g
         id="g29"><path
           style="fill:#6e2a7c"
           id="path31"
           d="M 74.7,8.7 C 72.1,4.2 65.3,8 67.7,12.6 l 0.6,1.2 0,0 C 73,23 69.4,34.3 60.1,39.1 50.9,43.8 39.6,40.2 34.8,30.9 l 0,0 -0.7,-1.3 c -2.3,-4.6 -9.3,-1.4 -7.3,3.3 0.5,1.2 1.1,2.3 1.8,3.5 C 35.5,47.7 50,52.3 62.2,47 76.6,40.8 82.5,23.8 75.5,10.1 75.2,9.6 74.9,9.1 74.7,8.7 Z"
           class="st0" /></g><g
         id="g33"><path
           style="fill:#6e2a7c"
           id="path35"
           d="m 55,19.9 c 2.1,4.7 -4.9,8 -7.3,3.4 l -0.6,-1.2 0,0 C 42.4,12.9 31.1,9.2 21.8,13.9 12.6,18.6 8.9,29.9 13.6,39.2 l 0,0 0.7,1.3 c 2.3,4.6 -4.3,8.4 -7,4 C 6.6,43.4 6.1,42.2 5.5,41 0.4,28.8 5.2,14.3 16.6,7.5 c 13.5,-8 30.7,-2.9 37.7,10.9 0.2,0.5 0.5,1 0.7,1.5 z"
           class="st0" /></g></g></g></svg>