<?xml version="1.0" encoding="UTF-8" standalone="no"?>
<!-- Generator: Adobe Illustrator 19.1.0, SVG Export Plug-In . SVG Version: 6.00 Build 0)  -->

<svg
   xmlns:dc="http://purl.org/dc/elements/1.1/"
   xmlns:cc="http://creativecommons.org/ns#"
   xmlns:rdf="http://www.w3.org/1999/02/22-rdf-syntax-ns#"
   xmlns:svg="http://www.w3.org/2000/svg"
   xmlns="http://www.w3.org/2000/svg"
   xmlns:sodipodi="http://sodipodi.sourceforge.net/DTD/sodipodi-0.dtd"
   xmlns:inkscape="http://www.inkscape.org/namespaces/inkscape"
   version="1.1"
   id="Layer_1"
   x="0px"
   y="0px"
   viewBox="0 0 231.3 52.5"
   style="enable-background:new 0 0 231.3 52.5;"
   xml:space="preserve"
   inkscape:version="0.91 r13725"
   sodipodi:docname="original_white.svg"><metadata
     id="metadata41"><rdf:RDF><cc:Work
         rdf:about=""><dc:format>image/svg+xml</dc:format><dc:type
           rdf:resource="http://purl.org/dc/dcmitype/StillImage" /><dc:title></dc:title></cc:Work></rdf:RDF></metadata><defs
     id="defs39" /><sodipodi:namedview
     pagecolor="#ffffff"
     bordercolor="#666666"
     borderopacity="1"
     objecttolerance="10"
     gridtolerance="10"
     guidetolerance="10"
     inkscape:pageopacity="0"
     inkscape:pageshadow="2"
     inkscape:window-width="1366"
     inkscape:window-height="705"
     id="namedview37"
     showgrid="false"
     inkscape:zoom="1.2840467"
     inkscape:cx="115.65"
     inkscape:cy="26.25"
     inkscape:window-x="0"
     inkscape:window-y="30"
     inkscape:window-maximized="1"
     inkscape:current-layer="Layer_1" /><style
     type="text/css"
     id="style3">
	.st0{fill:#6E2A7C;}
	.st1{fill:#FFFFFF;}
</style><g
     id="g5"
     style="fill:#ffffff"><g
       id="g7"
       style="fill:#ffffff"><path
         class="st0"
         d="M102.6,16.9h4.7V40c0,4.2-1.7,6.6-6.1,6.6c-0.9,0-1.5-0.1-2.1-0.2v-3.7c0.6,0.1,1.2,0.2,1.6,0.2    c1.7,0,1.9-1,1.9-3.1V16.9z"
         id="path9"
         style="fill:#ffffff" /><path
         class="st0"
         d="M110.4,27.5c0-6.5,3.9-11.2,10.7-11.2c6.8,0,10.7,4.7,10.7,11.2c0,6.5-3.9,11.2-10.7,11.2    C114.3,38.7,110.4,34.1,110.4,27.5z M127.2,27.5c0-3.7-1.9-7.5-6-7.5c-4.2,0-6,3.8-6,7.5c0,3.7,1.8,7.5,6,7.5    C125.3,35,127.2,31.2,127.2,27.5z"
         id="path11"
         style="fill:#ffffff" /><path
         class="st0"
         d="M134.9,8.8h4.7v10.9h0.1c1.3-2.1,3.9-3.3,6.3-3.3c6.7,0,9.9,5.1,9.9,11.3c0,5.7-2.9,11.1-9.2,11.1    c-2.9,0-6-0.7-7.4-3.5h-0.1v2.9h-4.4V8.8z M145.3,20c-3.9,0-6,3-6,7.5c0,4.3,2.2,7.5,6,7.5c4.3,0,5.9-3.8,5.9-7.5    C151.2,23.7,149.2,20,145.3,20z"
         id="path13"
         style="fill:#ffffff" /><path
         class="st0"
         d="M158.9,8.8h4.7v10.9h0.1c1.3-2.1,3.9-3.3,6.3-3.3c6.7,0,9.9,5.1,9.9,11.3c0,5.7-2.9,11.1-9.2,11.1    c-2.9,0-6-0.7-7.4-3.5h-0.1v2.9h-4.4V8.8z M169.4,20c-3.9,0-6,3-6,7.5c0,4.3,2.2,7.5,6,7.5c4.3,0,5.9-3.8,5.9-7.5    C175.3,23.7,173.3,20,169.4,20z"
         id="path15"
         style="fill:#ffffff" /><rect
         x="183"
         y="16.9"
         class="st0"
         width="4.7"
         height="21.3"
         id="rect17"
         style="fill:#ffffff" /><path
         class="st0"
         d="M195.4,28.8c0,3.3,1.8,6.3,5.7,6.3c2.7,0,4.4-1.2,5.2-3.5h4.4c-1,4.6-5,7.2-9.6,7.2    c-6.7,0-10.4-4.6-10.4-11.2c0-6,3.9-11.2,10.3-11.2c6.7,0,10.8,6,10,12.4H195.4z M206.4,25.7c-0.2-3-2.2-5.6-5.3-5.6    c-3.2,0-5.5,2.5-5.6,5.6H206.4z"
         id="path19"
         style="fill:#ffffff" /><path
         class="st0"
         d="M213.6,16.9h4.4V21h0.1c0.5-2.3,3.3-4.7,6.2-4.7c1.1,0,1.4,0.1,1.8,0.1V21c-0.7-0.1-1.4-0.2-2-0.2    c-3.2,0-5.8,2.6-5.8,7.3v10.1h-4.7V16.9z"
         id="path21"
         style="fill:#ffffff" /><circle
         class="st0"
         cx="105"
         cy="9.3"
         r="3"
         id="circle23"
         style="fill:#ffffff" /><circle
         class="st0"
         cx="185.4"
         cy="9.3"
         r="3"
         id="circle25"
         style="fill:#ffffff" /></g><g
       id="g27"
       style="fill:#ffffff"><g
         id="g29"
         style="fill:#ffffff"><path
           class="st0"
           d="M74.7,8.7c-2.6-4.5-9.4-0.7-7,3.9l0.6,1.2l0,0c4.7,9.2,1.1,20.5-8.2,25.3c-9.2,4.7-20.5,1.1-25.3-8.2l0,0     l-0.7-1.3c-2.3-4.6-9.3-1.4-7.3,3.3c0.5,1.2,1.1,2.3,1.8,3.5C35.5,47.7,50,52.3,62.2,47c14.4-6.2,20.3-23.2,13.3-36.9     C75.2,9.6,74.9,9.1,74.7,8.7z"
           id="path31"
           style="fill:#ffffff" /></g><g
         id="g33"
         style="fill:#ffffff"><path
           class="st0"
           d="M55,19.9c2.1,4.7-4.9,8-7.3,3.4l-0.6-1.2l0,0c-4.7-9.2-16-12.9-25.3-8.2c-9.2,4.7-12.9,16-8.2,25.3l0,0     l0.7,1.3c2.3,4.6-4.3,8.4-7,4c-0.7-1.1-1.2-2.3-1.8-3.5C0.4,28.8,5.2,14.3,16.6,7.5c13.5-8,30.7-2.9,37.7,10.9     C54.5,18.9,54.8,19.4,55,19.9z"
           id="path35"
           style="fill:#ffffff" /></g></g></g></svg>